<svg viewBox="3.9189189189189193 3.2300000000000004 92.70270270270271 93.69" version="1.1" xmlns="http://www.w3.org/2000/svg" style="max-height: 500px" width="92.70270270270271" height="93.69">
 <path d="m50 77c2.2109 0 4 1.7891 4 4v10c0 2.2109-1.7891 4-4 4s-4-1.7891-4-4v-10c0-2.2109 1.7891-4 4-4z"/>
 <path d="m25.25 69.094c1.5625-1.5625 4.0977-1.5625 5.6562 0 1.5625 1.5586 1.5625 4.0938 0 5.6562l-7.0703 7.0703c-1.5625 1.5625-4.0938 1.5625-5.6562 0s-1.5625-4.0938 0-5.6562z"/>
 <path d="m69.094 69.094c1.5586-1.5625 4.0938-1.5625 5.6562 0l7.0703 7.0703c1.5625 1.5625 1.5625 4.0938 0 5.6562s-4.0938 1.5625-5.6562 0l-7.0703-7.0703c-1.5625-1.5625-1.5625-4.0977 0-5.6562z"/>
 <path fill-rule="evenodd" d="m50 28c12.148 0 22 9.8516 22 22s-9.8516 22-22 22-22-9.8516-22-22 9.8516-22 22-22zm0 8c-7.7305 0-14 6.2695-14 14s6.2695 14 14 14 14-6.2695 14-14-6.2695-14-14-14z"/>
 <path d="m19 46c2.2109 0 4 1.7891 4 4s-1.7891 4-4 4h-10c-2.2109 0-4-1.7891-4-4s1.7891-4 4-4z"/>
 <path d="m91 46c2.2109 0 4 1.7891 4 4s-1.7891 4-4 4h-10c-2.2109 0-4-1.7891-4-4s1.7891-4 4-4z"/>
 <path d="m76.164 18.18c1.5625-1.5625 4.0938-1.5625 5.6562 0s1.5625 4.0938 0 5.6562l-7.0703 7.0703c-1.5625 1.5625-4.0977 1.5625-5.6562 0-1.5625-1.5586-1.5625-4.0938 0-5.6523z"/>
 <path d="m18.18 18.18c1.5625-1.5625 4.0938-1.5625 5.6562 0l7.0703 7.0703c1.5625 1.5625 1.5625 4.0977 0 5.6562-1.5586 1.5625-4.0938 1.5625-5.6562 0l-7.0703-7.0703c-1.5625-1.5625-1.5625-4.0938 0-5.6562z"/>
 <path d="m50 5c2.2109 0 4 1.7891 4 4v10c0 2.2109-1.7891 4-4 4s-4-1.7891-4-4v-10c0-2.2109 1.7891-4 4-4z"/>
<text fill="#000000" font-family="Arbeit Regular, Helvetica, Arial-Unicode, Arial, Sans-serif" font-weight="bold" font-size="5.0" y="117.5" x="0.0">Created by Styfico</text><text fill="#000000" font-family="Arbeit Regular, Helvetica, Arial-Unicode, Arial, Sans-serif" font-weight="bold" font-size="5.0" y="122.5" x="0.0">from Noun Project</text></svg>