<svg y="0px" x="0px" viewBox="17 18 65.5 65" data-name="Layer 1" xmlns="http://www.w3.org/2000/svg" style="max-height: 500px" width="65.5" height="65"><title>Artboard 56</title><path d="M81,34A15,15,0,0,0,66,19H64.76L40.57,43.19A18.87,18.87,0,0,0,35,56.63V65h8.37a18.87,18.87,0,0,0,13.44-5.57L81,35.24ZM52.57,55.19A12.92,12.92,0,0,1,43.37,59H41V56.63a12.92,12.92,0,0,1,3.81-9.19L67.17,25.08a9,9,0,0,1,7.76,7.76Z"/><path d="M19,74a7,7,0,0,0,7,7H66a7,7,0,0,0,7-7V63H67V74a1,1,0,0,1-1,1H26a1,1,0,0,1-1-1V34a1,1,0,0,1,1-1H37V27H26a7,7,0,0,0-7,7Z"/><text font-family="'Helvetica Neue', Helvetica, Arial-Unicode, Arial, Sans-serif" font-weight="bold" font-size="5px" fill="#000000" y="115" x="0">Created by Gregor Cresnar</text><text font-family="'Helvetica Neue', Helvetica, Arial-Unicode, Arial, Sans-serif" font-weight="bold" font-size="5px" fill="#000000" y="120" x="0">from the Noun Project</text></svg>